{"accessors":[{"bufferView":2,"componentType":5126,"count":1512,"max":[1.6940151453018188,0.5780766010284424,0.5852355360984802],"min":[-1.7639176845550537,-0.2709553837776184,-0.5852355360984802],"type":"VEC3"},{"bufferView":2,"byteOffset":18144,"componentType":5126,"count":1512,"max":[0.9999997019767761,0.9999997019767761,1],"min":[-1,-0.9965639114379883,-1],"type":"VEC3"},{"bufferView":3,"componentType":5126,"count":1512,"max":[0.9999555349349976,0.9957173466682434,1,1],"min":[-0.9999997019767761,-0.990631103515625,-1,-1],"type":"VEC4"},{"bufferView":1,"componentType":5126,"count":1512,"max":[0.8750000596046448,0.75],"min":[0,0],"type":"VEC2"},{"bufferView":0,"componentType":5125,"count":2484,"max":[1511],"min":[0],"type":"SCALAR"},{"bufferView":2,"byteOffset":36288,"componentType":5126,"count":1076,"max":[1.6559863090515137,0.5780766010284424,0.6141628623008728],"min":[-1.7639176845550537,-0.37077227234840393,-0.6141628623008728],"type":"VEC3"},{"bufferView":2,"byteOffset":49200,"componentType":5126,"count":1076,"max":[0.9862157106399536,1,1],"min":[-1,-0.9999905824661255,-1],"type":"VEC3"},{"bufferView":3,"byteOffset":24192,"componentType":5126,"count":1076,"max":[0.9999996423721313,1,1,1],"min":[-0.9999297261238098,-0.989348828792572,-1,-1],"type":"VEC4"},{"bufferView":1,"byteOffset":12096,"componentType":5126,"count":1076,"max":[0.875,0.75],"min":[0,0],"type":"VEC2"},{"bufferView":0,"byteOffset":9936,"componentType":5125,"count":1710,"max":[1075],"min":[0],"type":"SCALAR"},{"bufferView":2,"byteOffset":62112,"componentType":5126,"count":40,"max":[1.6926904916763306,0.5637744069099426,0.5707706809043884],"min":[0.24221912026405334,-0.2146291434764862,-0.5707706809043884],"type":"VEC3"},{"bufferView":2,"byteOffset":62592,"componentType":5126,"count":40,"max":[0.886458694934845,0.9479976296424866,0.5771757960319519],"min":[-0.38017621636390686,-0.9249138236045837,-0.5771757960319519],"type":"VEC3"},{"bufferView":3,"byteOffset":41408,"componentType":5126,"count":40,"max":[0.7657260894775391,0.9627584218978882,0.9998785257339478,1],"min":[-0.5615755915641785,-0.8870242238044739,-0.9998785257339478,-1],"type":"VEC4"},{"bufferView":1,"byteOffset":20704,"componentType":5126,"count":40,"max":[0.4139660596847534,0.6240995526313782],"min":[0.012130496092140675,0.017147811129689217],"type":"VEC2"},{"bufferView":0,"byteOffset":16776,"componentType":5125,"count":60,"max":[39],"min":[0],"type":"SCALAR"},{"bufferView":2,"byteOffset":63072,"componentType":5126,"count":16,"max":[-1.6536158323287964,0.2938229739665985,0.5662344098091125],"min":[-1.7617961168289185,-0.10715173184871674,-0.5662344098091125],"type":"VEC3"},{"bufferView":2,"byteOffset":63264,"componentType":5126,"count":16,"max":[-0.9883976578712463,-0.04487496614456177,3.125707621620677e-7],"min":[-0.9989926218986511,-0.15188850462436676,-3.125707621620677e-7],"type":"VEC3"},{"bufferView":3,"byteOffset":42048,"componentType":5126,"count":16,"max":[-0.04355534911155701,0.9984092712402344,0.24072466790676117,1],"min":[-0.15188850462436676,0.9696157574653625,-0.24072466790676117,-1],"type":"VEC4"},{"bufferView":1,"byteOffset":21024,"componentType":5126,"count":16,"max":[0.6193430423736572,0.7497518062591553],"min":[0.47039976716041565,0.625],"type":"VEC2"},{"bufferView":0,"byteOffset":17016,"componentType":5125,"count":24,"max":[15],"min":[0],"type":"SCALAR"},{"bufferView":2,"byteOffset":63456,"componentType":5126,"count":58,"max":[1.1827409267425537,0.571262776851654,0.5494268536567688],"min":[-0.6243073344230652,0.2447582334280014,-0.5494268536567688],"type":"VEC3"},{"bufferView":2,"byteOffset":64152,"componentType":5126,"count":58,"max":[0.3182775378227234,0.9909259676933289,0.9597539901733398],"min":[-1,9.65234203675891e-9,-0.9597539901733398],"type":"VEC3"},{"bufferView":3,"byteOffset":42304,"componentType":5126,"count":58,"max":[0.9989665746688843,0.0785488411784172,0.999916672706604,1],"min":[-0.9999006390571594,-0.24622753262519836,-0.9992742538452148,-1],"type":"VEC4"},{"bufferView":1,"byteOffset":21152,"componentType":5126,"count":58,"max":[0.6820869445800781,0.5642053484916687],"min":[0,0],"type":"VEC2"},{"bufferView":0,"byteOffset":17112,"componentType":5125,"count":90,"max":[57],"min":[0],"type":"SCALAR"},{"bufferView":2,"byteOffset":64848,"componentType":5126,"count":8,"max":[1.6357609033584595,-0.12754373252391815,0.5324069857597351],"min":[1.5150361061096191,-0.13462580740451813,-0.5324069857597351],"type":"VEC3"},{"bufferView":2,"byteOffset":64944,"componentType":5126,"count":8,"max":[0.7564396262168884,-0.4437369406223297,0.4805172383785248],"min":[0.7564396262168884,-0.4437369406223297,-0.4805172383785248],"type":"VEC3"},{"bufferView":3,"byteOffset":43232,"componentType":5126,"count":8,"max":[-0.3491208851337433,0.38782474398612976,0.8530572652816772,1],"min":[-0.6270887851715088,-0.2605647146701813,-0.8530572652816772,-1],"type":"VEC4"},{"bufferView":1,"byteOffset":21616,"componentType":5126,"count":8,"max":[0.6823749542236328,0.7313632965087891],"min":[0.38266393542289734,0.5281569361686707],"type":"VEC2"},{"bufferView":0,"byteOffset":17472,"componentType":5125,"count":12,"max":[7],"min":[0],"type":"SCALAR"},{"bufferView":2,"byteOffset":65040,"componentType":5126,"count":22160,"max":[1.317262053489685,4.920925617218018,1.3177251815795898],"min":[-1.3169499635696411,-4.920925617218018,-1.3160619735717773],"type":"VEC3"},{"bufferView":2,"byteOffset":330960,"componentType":5126,"count":22160,"max":[0.9996141195297241,1,0.9999385476112366],"min":[-0.9999538660049438,-1,-0.9999208450317383],"type":"VEC3"},{"bufferView":3,"byteOffset":43360,"componentType":5126,"count":22160,"max":[0.9999963641166687,0.998028039932251,1,1],"min":[-1,-0.9999682307243347,-1,-1],"type":"VEC4"},{"bufferView":1,"byteOffset":21680,"componentType":5126,"count":22160,"max":[0.8479374647140503,0.625],"min":[0,0],"type":"VEC2"},{"bufferView":0,"byteOffset":17520,"componentType":5125,"count":40068,"max":[22159],"min":[0],"type":"SCALAR"},{"bufferView":2,"byteOffset":596880,"componentType":5126,"count":22160,"max":[1.3172625303268433,4.920926094055176,1.3177253007888794],"min":[-1.316949486732483,-4.920926094055176,-1.3160618543624878],"type":"VEC3"},{"bufferView":2,"byteOffset":862800,"componentType":5126,"count":22160,"max":[0.9996140003204346,1,0.9999385476112366],"min":[-0.9999538660049438,-1,-0.9999208450317383],"type":"VEC3"},{"bufferView":3,"byteOffset":397920,"componentType":5126,"count":22160,"max":[0.9999963641166687,0.9993489384651184,1,1],"min":[-1,-0.9999682307243347,-1,-1],"type":"VEC4"},{"bufferView":1,"byteOffset":198960,"componentType":5126,"count":22160,"max":[0.8479374647140503,0.625],"min":[0,0],"type":"VEC2"},{"bufferView":0,"byteOffset":177792,"componentType":5125,"count":40068,"max":[22159],"min":[0],"type":"SCALAR"}],"asset":{"extras":{"author":"PolyDucky (https://sketchfab.com/halpmehplzdaddy)","license":"CC-BY-4.0 (http://creativecommons.org/licenses/by/4.0/)","source":"https://sketchfab.com/3d-models/tesla-cybertruck-1ab0c3f248fa47019c4311abce9731a0","title":"Tesla Cybertruck"},"generator":"Sketchfab-6.93.2","version":"2.0"},"bufferViews":[{"buffer":0,"byteLength":338064,"byteOffset":0,"name":"floatBufferViews","target":34963},{"buffer":0,"byteLength":376240,"byteOffset":338064,"byteStride":8,"name":"floatBufferViews","target":34962},{"buffer":0,"byteLength":1128720,"byteOffset":714304,"byteStride":12,"name":"floatBufferViews","target":34962},{"buffer":0,"byteLength":752480,"byteOffset":1843024,"byteStride":16,"name":"floatBufferViews","target":34962}],"buffers":[{"byteLength":2595504,"uri":"data:application/octet-stream;base64,"}],"images":[{"uri":"data:application/octet-stream;base64,"}],"materials":[{"doubleSided":true,"emissiveFactor":[0,0,0],"name":"Base","pbrMetallicRoughness":{"baseColorFactor":[1,1,1,1],"metallicFactor":1,"roughnessFactor":0.6710605968000001}},{"doubleSided":true,"emissiveFactor":[0,0,0],"name":"TeslaBlack","pbrMetallicRoughness":{"baseColorFactor":[0.12371,0.12371,0.12371,1],"metallicFactor":1,"metallicRoughnessTexture":{"index":0,"texCoord":0},"roughnessFactor":0.8004954268}},{"doubleSided":true,"emissiveFactor":[1,1,1],"name":"TeslaFrontLight","pbrMetallicRoughness":{"baseColorFactor":[1,1,1,1],"metallicFactor":1,"roughnessFactor":1}},{"doubleSided":true,"emissiveFactor":[1,0.0290698,0.0328842],"name":"TeslaRearLight","pbrMetallicRoughness":{"baseColorFactor":[0.8736661585,0.8736661585,0.8736661585,1],"metallicFactor":1,"roughnessFactor":0}},{"doubleSided":true,"emissiveFactor":[0,0,0],"name":"Material.004","pbrMetallicRoughness":{"baseColorFactor":[0.7241664349,0.8899137714,1,1],"metallicFactor":1,"roughnessFactor":0.4468181726}},{"doubleSided":true,"emissiveFactor":[1,0.107386,0],"name":"Material.001","pbrMetallicRoughness":{"baseColorFactor":[1,1,1,1],"metallicFactor":1,"roughnessFactor":1}}],"meshes":[{"primitives":[{"attributes":{"NORMAL":1,"POSITION":0,"TANGENT":2,"TEXCOORD_0":3},"indices":4,"material":0,"mode":4}]},{"primitives":[{"attributes":{"NORMAL":6,"POSITION":5,"TANGENT":7,"TEXCOORD_0":8},"indices":9,"material":1,"mode":4}]},{"primitives":[{"attributes":{"NORMAL":11,"POSITION":10,"TANGENT":12,"TEXCOORD_0":13},"indices":14,"material":2,"mode":4}]},{"primitives":[{"attributes":{"NORMAL":16,"POSITION":15,"TANGENT":17,"TEXCOORD_0":18},"indices":19,"material":3,"mode":4}]},{"primitives":[{"attributes":{"NORMAL":21,"POSITION":20,"TANGENT":22,"TEXCOORD_0":23},"indices":24,"material":4,"mode":4}]},{"primitives":[{"attributes":{"NORMAL":26,"POSITION":25,"TANGENT":27,"TEXCOORD_0":28},"indices":29,"material":5,"mode":4}]},{"primitives":[{"attributes":{"NORMAL":31,"POSITION":30,"TANGENT":32,"TEXCOORD_0":33},"indices":34,"material":1,"mode":4}]},{"primitives":[{"attributes":{"NORMAL":36,"POSITION":35,"TANGENT":37,"TEXCOORD_0":38},"indices":39,"material":1,"mode":4}]}],"nodes":[{"children":[1],"name":"RootNode (gltf orientation matrix)","rotation":[-0.7071067811865475,0,0,0.7071067811865476]},{"children":[2],"name":"RootNode (model correction matrix)"},{"children":[3],"name":"root"},{"children":[4],"matrix":[1,0,0,0,0,2.220446049250313e-16,1,0,0,-1,2.220446049250313e-16,0,0,0,0,1],"name":"GLTF_SceneRootNode"},{"children":[5,6,7,8,9,10,11,13],"name":"Cube_2"},{"mesh":0,"name":""},{"mesh":1,"name":""},{"mesh":2,"name":""},{"mesh":3,"name":""},{"mesh":4,"name":""},{"mesh":5,"name":""},{"children":[12],"matrix":[0.18534935838913327,-0.05732394679051947,-4.042592018574426e-9,0,2.717494929876073e-9,-4.106316791388023e-10,0.1304175555706024,0,-0.05732394679051947,-0.18534935838913333,6.108626784700493e-10,0,1.1713083982467651,-0.2823566496372223,0,1],"name":"Circle_0"},{"mesh":6,"name":""},{"children":[14],"matrix":[0.18534935838913327,-0.05732394679051947,-4.042592018574426e-9,0,2.717494929876073e-9,-4.106316791388023e-10,0.1304175555706024,0,-0.05732394679051947,-0.18534935838913333,6.108626784700493e-10,0,-1.1261606216430664,-0.2823565900325775,0,1],"name":"Circle.001_1"},{"mesh":7,"name":""}],"samplers":[{"magFilter":9729,"minFilter":9987,"wrapS":10497,"wrapT":10497}],"scene":0,"scenes":[{"name":"OSG_Scene","nodes":[0]}],"textures":[{"sampler":0,"source":0}]}